<svg width="84" height="84" viewBox="0 0 84 84" fill="none" xmlns="http://www.w3.org/2000/svg">
<g clip-path="url(#clip0_752_176)">
<path d="M73.2383 5.23145C74.6258 5.23145 75.9564 5.78262 76.9375 6.7637C77.9186 7.74479 78.4698 9.07543 78.4698 10.4629V73.2403C78.4698 74.6277 77.9186 75.9584 76.9375 76.9395C75.9564 77.9205 74.6258 78.4717 73.2383 78.4717H10.4609C9.07348 78.4717 7.74284 77.9205 6.76175 76.9395C5.78066 75.9584 5.22949 74.6277 5.22949 73.2403V10.4629C5.22949 9.07543 5.78066 7.74479 6.76175 6.7637C7.74284 5.78262 9.07348 5.23145 10.4609 5.23145H73.2383ZM10.4609 0C7.68601 0 5.02473 1.10234 3.06256 3.06451C1.10038 5.02668 -0.00195312 7.68796 -0.00195312 10.4629L-0.00195312 73.2403C-0.00195312 76.0152 1.10038 78.6765 3.06256 80.6386C5.02473 82.6008 7.68601 83.7032 10.4609 83.7032H73.2383C76.0132 83.7032 78.6745 82.6008 80.6367 80.6386C82.5989 78.6765 83.7012 76.0152 83.7012 73.2403V10.4629C83.7012 7.68796 82.5989 5.02668 80.6367 3.06451C78.6745 1.10234 76.0132 0 73.2383 0L10.4609 0Z" fill="url(#paint0_linear_752_176)"/>
<path d="M35.8542 24.3056C36.0978 24.5486 36.291 24.8372 36.4229 25.155C36.5548 25.4728 36.6226 25.8134 36.6226 26.1575C36.6226 26.5016 36.5548 26.8422 36.4229 27.16C36.291 27.4778 36.0978 27.7665 35.8542 28.0094L22.0065 41.8519L35.8542 55.6943C36.3453 56.1854 36.6213 56.8516 36.6213 57.5462C36.6213 58.2408 36.3453 58.907 35.8542 59.3981C35.363 59.8893 34.6969 60.1652 34.0022 60.1652C33.3076 60.1652 32.6415 59.8893 32.1503 59.3981L16.456 43.7038C16.2124 43.4608 16.0191 43.1722 15.8872 42.8544C15.7554 42.5366 15.6875 42.1959 15.6875 41.8519C15.6875 41.5078 15.7554 41.1671 15.8872 40.8493C16.0191 40.5315 16.2124 40.2429 16.456 39.9999L32.1503 24.3056C32.3933 24.062 32.6819 23.8687 32.9997 23.7369C33.3175 23.605 33.6582 23.5371 34.0022 23.5371C34.3463 23.5371 34.687 23.605 35.0048 23.7369C35.3225 23.8687 35.6112 24.062 35.8542 24.3056ZM47.8447 24.3056C47.6011 24.5486 47.4078 24.8372 47.2759 25.155C47.1441 25.4728 47.0762 25.8134 47.0762 26.1575C47.0762 26.5016 47.1441 26.8422 47.2759 27.16C47.4078 27.4778 47.6011 27.7665 47.8447 28.0094L61.6923 41.8519L47.8447 55.6943C47.3535 56.1854 47.0776 56.8516 47.0776 57.5462C47.0776 58.2408 47.3535 58.907 47.8447 59.3981C48.3358 59.8893 49.002 60.1652 49.6966 60.1652C50.3912 60.1652 51.0574 59.8893 51.5485 59.3981L67.2429 43.7038C67.4865 43.4608 67.6797 43.1722 67.8116 42.8544C67.9435 42.5366 68.0113 42.1959 68.0113 41.8519C68.0113 41.5078 67.9435 41.1671 67.8116 40.8493C67.6797 40.5315 67.4865 40.2429 67.2429 39.9999L51.5485 24.3056C51.3055 24.062 51.0169 23.8687 50.6991 23.7369C50.3813 23.605 50.0406 23.5371 49.6966 23.5371C49.3525 23.5371 49.0119 23.605 48.6941 23.7369C48.3763 23.8687 48.0876 24.062 47.8447 24.3056Z" fill="url(#paint1_linear_752_176)"/>
</g>
<defs>
<linearGradient id="paint0_linear_752_176" x1="41.8496" y1="0" x2="41.8496" y2="83.7032" gradientUnits="userSpaceOnUse">
<stop stop-color="#9B33FF"/>
<stop offset="1" stop-color="#FF1A60"/>
</linearGradient>
<linearGradient id="paint1_linear_752_176" x1="41.8494" y1="23.5371" x2="41.8494" y2="60.1652" gradientUnits="userSpaceOnUse">
<stop stop-color="#9B33FF"/>
<stop offset="1" stop-color="#FF1A60"/>
</linearGradient>
<clipPath id="clip0_752_176">
<rect width="83.7032" height="83.7032" fill="white"/>
</clipPath>
</defs>
</svg>
