<svg width="47" height="14" viewBox="0 0 47 14" fill="none" xmlns="http://www.w3.org/2000/svg">
<path d="M7.52759 6.66964H7.45466L5.29591 0.312196C5.23173 0.121635 5.09171 0 4.94001 0H0.893825C0.675033 0 0.5 0.24327 0.5 0.547357V12.496C0.5 12.8 0.675033 13.0433 0.893825 13.0433H3.8023C4.02109 13.0433 4.19612 12.8 4.19612 12.496V6.3169H4.26905L6.58241 12.7433C6.6495 12.9298 6.78661 13.0474 6.93539 13.0474H10.8299C11.0487 13.0474 11.2237 12.8041 11.2237 12.5V0.547357C11.2237 0.24327 11.0487 0 10.8299 0H7.92141C7.70262 0 7.52759 0.24327 7.52759 0.547357V6.66964Z" fill="white"/>
<path d="M16.438 7.32655H21.6307C21.7561 7.32655 21.8611 7.18465 21.8611 7.00625V6.03721C21.8611 5.86287 21.759 5.7169 21.6307 5.7169H16.438V3.87614H21.867C22.0858 3.87614 22.2608 3.63287 22.2608 3.32878V0.547363C22.2608 0.243273 22.0858 0 21.867 0H12.8352C12.6164 0 12.4414 0.243273 12.4414 0.547363V12.5042C12.4414 12.8002 12.6164 13.0435 12.8294 13.0435H21.9282C22.147 13.0435 22.3221 12.8002 22.3221 12.4961V9.88497C22.3221 9.58088 22.147 9.33761 21.9282 9.33761H16.438V7.32655Z" fill="white"/>
<path d="M34.2569 5.16143C34.2569 0.632508 32.3899 0 29.919 0H23.927C23.7082 0 23.5332 0.243273 23.5332 0.547363V12.4961C23.5332 12.8002 23.7082 13.0435 23.927 13.0435H27.136C27.3548 13.0435 27.5298 12.8002 27.5298 12.4961V10.1931H28.2066C28.4196 11.6284 29.251 12.7394 30.2982 12.9826C30.4237 13.0191 30.555 13.0435 30.6979 13.0435H33.8631C34.0819 13.0435 34.2569 12.8002 34.2569 12.4961V10.1931C34.2569 9.88902 34.0819 9.64575 33.8631 9.64575H32.5708C33.6647 9.02541 34.2569 7.74417 34.2569 5.16143ZM27.5327 3.83965H29.3356C29.779 3.83965 30.1495 4.31809 30.1845 4.93032C30.2662 6.35752 29.9453 6.83595 29.0584 6.8765H27.5327V3.83965Z" fill="white"/>
<path d="M46.0175 6.44672C46.0175 1.71102 44.3692 0 41.172 0H35.8714C35.6526 0 35.4775 0.243273 35.4775 0.547363V12.4231C35.4775 12.7677 35.6788 13.0435 35.9239 13.0435H41.172C44.3692 13.0435 46.0175 11.3284 46.0175 6.59674C46.0175 6.57241 46.0145 6.54808 46.0145 6.52376C46.0145 6.49537 46.0175 6.4751 46.0175 6.44672ZM40.4893 9.03757H39.41V7.56983V4.00589H40.4893C41.6795 4.00589 41.9975 4.91005 42.0121 6.52376C41.9975 8.13341 41.6825 9.03757 40.4893 9.03757Z" fill="white"/>
</svg>
